<?xml version="1.0" encoding="UTF-8"?>
<!DOCTYPE svg PUBLIC "-//W3C//DTD SVG 1.1//EN" "http://www.w3.org/Graphics/SVG/1.1/DTD/svg11.dtd">
<!-- Creator: CorelDRAW -->
<svg xmlns="http://www.w3.org/2000/svg" xml:space="preserve" width="491.144mm" height="446.24mm" version="1.1" style="shape-rendering:geometricPrecision; text-rendering:geometricPrecision; image-rendering:optimizeQuality; fill-rule:evenodd; clip-rule:evenodd"
viewBox="0 0 49101.36 44612.12"
 xmlns:xlink="http://www.w3.org/1999/xlink"
 xmlns:xodm="http://www.corel.com/coreldraw/odm/2003"
 xmlns:svgjs="http://svgjs.com/svgjs">
 <defs>
  <style type="text/css">
   <![CDATA[
    .fil0 {fill:#EE3147}
    .fil1 {fill:white;fill-rule:nonzero}
   ]]>
  </style>
 </defs>
 <g id="Слой_x0020_1">
  <metadata id="CorelCorpID_0Corel-Layer"/>
  <path class="fil0" d="M1132.45 18255.52l8201.3 -14205.03c1509.93,-2615.26 3995.84,-4050.48 7015.69,-4050.48l16402.54 0.06c3019.86,0 5505.77,1435.23 7015.69,4050.48l8201.24 14205.03c1509.93,2615.32 1509.93,5485.77 0,8101.03l-8201.3 14205.03c-1509.93,2615.26 -3995.84,4050.48 -7015.69,4050.48l-16402.54 -0.06c-3019.86,0 -5505.78,-1435.23 -7015.69,-4050.48l-8201.24 -14205.03c-1509.93,-2615.32 -1509.93,-5485.77 0,-8101.03z"/>
  <g id="_2757946904544">
   <g>
    <path class="fil1" d="M34385.89 8409.56l-1255.55 0c-551.91,0 -551.91,855.67 0,855.67l1255.55 0c1296.63,0 2351.56,1051.1 2351.56,2343.07l0 9901.39c0,1292.01 -1054.88,2343.11 -2351.56,2343.11l-1424 0c-93.95,0 -185.28,30.92 -259.95,88.03l-2613.01 1998.73 0 -1658.93c0,-236.29 -191.5,-427.85 -427.85,-427.85l-5207.05 0.02c-426.4,0 -836.22,-112.55 -1197.65,-326.52l0 -4802.71c0,-899.6 -458.17,-1694.42 -1153.95,-2164.61l0 -4950.64c0,-1291.95 1054.92,-2343.07 2351.62,-2343.07l5995.18 0c551.84,0 551.84,-855.67 0,-855.67l-5995.2 0c-1768.5,0 -3207.29,1434.98 -3207.29,3198.74l0 4574.59c-195.9,-46.78 -399.99,-72.28 -610.05,-72.28l-7832.02 0c-1444.44,0 -2619.62,1172.15 -2619.62,2612.95l0 923.83c0,551.83 855.67,551.83 855.67,0l0 -923.83c0,-968.97 791.27,-1757.27 1763.93,-1757.27l7832.1 0c972.68,0 1764,788.3 1764,1757.27l0 4973.06c-5.13,37.77 -4.92,75.82 0,113.28l0 2721.73c0,53.79 -3.25,107.35 -8.11,160.64l-882.31 0c-972.21,0 -1782.72,701.71 -1950.77,1623.95 -38.91,14.66 -76.27,35.14 -110.89,61.82l-1913.56 1477.53 0 -1138.85c0,-236.29 -191.5,-427.84 -427.85,-427.84l-4302.6 0.02c-972.68,0 -1763.93,-788.3 -1763.93,-1757.27l0 -4317.21c0,-551.84 -855.67,-551.84 -855.67,0l0 4317.27c0,1440.78 1175.19,2612.95 2619.62,2612.95l3874.82 0 0 1581.86c0,343.19 416.72,549.06 689.33,338.69l2158.31 -1666.46 0 4813.15c0,1090.99 889.72,1978.49 1983.27,1978.49l2625.47 -0.02 0 998.33c0,343.06 416.72,549.16 689.27,338.68l1731.66 -1337.01 511.57 0c1093.55,0 1983.28,-887.55 1983.28,-1978.49l0 -759.61c0,-551.84 -855.67,-551.84 -855.67,0l0 759.61c0,619.17 -505.82,1122.8 -1127.61,1122.8l-657.56 0.02c-94.63,0 -186.6,31.37 -261.45,89.17l-1157.89 893.95 0 -555.33c0,-236.3 -191.5,-427.85 -427.85,-427.85l-3053.31 0c-621.73,0 -1127.61,-503.71 -1127.61,-1122.81l0 -5541c0,-619.17 505.82,-1122.81 1127.61,-1122.81l5558.05 0c621.73,0 1127.61,503.71 1127.61,1122.81l0 2100.33c0,551.84 855.67,551.84 855.67,0l0 -2100.27c0,-1090.98 -889.73,-1978.49 -1983.28,-1978.49l-3816.87 0c3.26,-53.46 4.92,-2214.37 4.92,-2214.37 377.23,151.68 781.68,230.51 1197.65,230.51l4779.22 0.02 0 2096.97c0,342.33 414.95,548.43 687.78,339.83l3185.73 -2436.77 1279.12 -0.03c1768.44,0 3207.23,-1434.97 3207.23,-3198.8l0 -9901.45c-0.06,-1763.77 -1438.86,-3198.74 -3207.3,-3198.74l0 0.02z" data-original="#000000"/>
    <path class="fil1" d="M30488.98 11570.53c-543.24,-138.67 -1096.81,290.52 -1096.81,851.85 0,613.28 -223.5,1204.33 -629.03,1663.93l-1178.77 1333.88c-76.34,-117.12 -208.22,-194.64 -358.41,-194.64l-2301.18 0.02c-236.33,0 -427.85,191.55 -427.85,427.85l0 5177.67c0,236.29 191.5,427.85 427.85,427.85l2301.18 -0.02c172.91,0 321.44,-102.74 388.94,-250.25 465.9,284.65 1005.75,438.55 1555.05,438.55l4066.84 0c621.45,0 1134.11,-539.25 1104.96,-1159.08 -12.96,-274.51 1.21,-3960.35 1.21,-4042.21 0,-609.92 -496.23,-1106.21 -1104.91,-1106.21l-2114.83 -6.34 87.57 -207.35c400.16,-947.7 334.29,-2046.6 -176.03,-2939.75 -119.11,-208.67 -313.01,-356.26 -545.74,-415.75 -232.86,-59.43 232.76,59.49 0,0 -543.18,-138.67 232.76,59.49 0,0l-0.02 0zm-3690.86 8832.71l-1445.52 0 0 -4322.01 1445.52 0 0 4322.01zm6438.66 -4407.92c138.16,0 250.54,112.38 250.54,250.54 0,81.4 -0.86,302.34 -2.01,601.87 -6.34,1653.85 -10.56,3220.18 1.66,3480.53 4.45,93.95 -41.24,156.59 -68.85,185.56 -47.81,50.08 -112.2,77.63 -181.34,77.63l-4066.84 0.02c-484.77,0 -959.2,-168 -1336.04,-473l-180.09 -145.81 0 -3338.9 1750.76 -1981.1c543.81,-616.32 843.3,-1408.37 843.3,-2230.35 0,-24.18 33.02,-30.46 43.98,-11.64 378.89,663.03 427.72,1478.82 130.68,2182.36l-337.65 799.71c-55.73,131.94 -41.69,282.93 37.19,402.38 79.01,119.45 212.48,191.45 355.63,191.9l2759.1 8.3z" data-original="#000000"/>
    <path class="fil1" d="M13848.49 23269.64c-236.34,0 -427.85,191.55 -427.85,427.84 0,236.29 191.49,427.85 427.85,427.85l1261.15 -0.02 -235.6 1424.93c-38.57,233.07 119.23,453.32 352.31,491.89 23.67,3.94 47.13,5.82 70.28,5.82 205.59,0 386.93,-148.59 421.61,-358.12l258.64 -1564.44 1032.12 -0.03 -235.6 1424.93c-38.56,233.08 119.24,453.33 352.31,491.89 23.67,3.95 47.13,5.82 70.28,5.82 205.59,0 386.93,-148.59 421.62,-358.12l258.64 -1564.44 1716.65 0c236.34,0 427.85,-191.56 427.85,-427.85 0,-236.29 -191.49,-427.85 -427.85,-427.85l-1575.18 0.02 172.56 -1043.68 1402.62 0c236.34,0 427.85,-191.56 427.85,-427.85 0,-236.29 -191.49,-427.85 -427.85,-427.85l-1261.13 0 235.6 -1424.93c38.57,-233.07 -119.23,-453.32 -352.31,-491.89 -233.38,-38.67 -453.33,119.24 -491.89,352.31l-258.64 1564.45 -1032.14 0.02 235.6 -1424.93c38.57,-233.08 -119.24,-453.33 -352.31,-491.89 -233.66,-38.67 -453.29,119.23 -491.89,352.31l-258.65 1564.44 -1716.65 0c-236.34,0 -427.85,191.56 -427.85,427.85 0,236.29 191.49,427.85 427.85,427.85l1575.18 -0.02 -172.56 1043.68 -1402.62 0.03zm2442.49 -1043.71l1032.11 0 -172.56 1043.68 -1032.11 0.03 172.56 -1043.71z" data-original="#000000"/>
    <path class="fil1" d="M24284.21 29755.52c-345.46,-284.42 -805.08,-396.63 -1266.11,-284.53 -590.82,143.46 -1186.98,695.77 -1186.98,1606.15 0,566.63 206.8,1058.48 632.16,1503.66 347.46,363.66 848.88,709.46 1625.74,1121.33 62.68,33.27 131.54,49.87 200.4,49.87 68.85,0 137.7,-16.6 200.4,-49.87 1355.27,-718.48 2257.83,-1439.8 2257.83,-2624.96 0,-915.35 -617.34,-1462.01 -1229.21,-1597.72 -459.67,-101.98 -905.29,6.28 -1234.23,276.11l0.02 -0.04zm1607.71 1321.62c0,639.24 -424.01,1111.98 -1602.56,1760.75 -1178.55,-648.83 -1602.62,-1121.56 -1602.62,-1760.75 0,-475.63 275.42,-712.03 533.2,-774.67 47.52,-11.54 98.41,-18.03 150.71,-18.03 193.88,0 407.06,89.58 538.5,344.38 74.89,145.01 226.3,234.91 388.7,231.55 163.1,-3.26 310.21,-98.97 379.17,-246.83 138.43,-296.75 429.61,-348.95 655.96,-298.69 270.29,59.84 558.94,291.6 558.94,762.28l0.02 0.02z" data-original="#000000"/>
   </g>
  </g>
 </g>
</svg>
