<?xml version="1.0" encoding="UTF-8"?>
<!DOCTYPE svg PUBLIC "-//W3C//DTD SVG 1.1//EN" "http://www.w3.org/Graphics/SVG/1.1/DTD/svg11.dtd">
<!-- Creator: CorelDRAW -->
<svg xmlns="http://www.w3.org/2000/svg" xml:space="preserve" width="491.144mm" height="446.24mm" version="1.1" style="shape-rendering:geometricPrecision; text-rendering:geometricPrecision; image-rendering:optimizeQuality; fill-rule:evenodd; clip-rule:evenodd"
viewBox="0 0 49101.36 44612.12"
 xmlns:xlink="http://www.w3.org/1999/xlink"
 xmlns:xodm="http://www.corel.com/coreldraw/odm/2003"
 xmlns:svgjs="http://svgjs.com/svgjs">
 <defs>
  <style type="text/css">
   <![CDATA[
    .fil0 {fill:#EE3147}
    .fil1 {fill:white;fill-rule:nonzero}
   ]]>
  </style>
 </defs>
 <g id="Слой_x0020_1">
  <metadata id="CorelCorpID_0Corel-Layer"/>
  <path class="fil0" d="M1132.45 18255.52l8201.3 -14205.03c1509.93,-2615.26 3995.84,-4050.48 7015.69,-4050.48l16402.54 0.06c3019.86,0 5505.77,1435.23 7015.69,4050.48l8201.24 14205.03c1509.93,2615.32 1509.93,5485.77 0,8101.03l-8201.3 14205.03c-1509.93,2615.26 -3995.84,4050.48 -7015.69,4050.48l-16402.54 -0.06c-3019.86,0 -5505.78,-1435.23 -7015.69,-4050.48l-8201.24 -14205.03c-1509.93,-2615.32 -1509.93,-5485.77 0,-8101.03z"/>
  <g id="_2757950946336">
   <g>
    <g>
     <g>
      <path class="fil1" d="M25047.68 30906.25c-253.36,-52.59 -1441.69,152.1 -2574.17,-458.22 -226.26,-121.96 -508.25,-37.34 -630.17,188.74 -121.84,226.13 -37.33,508.19 188.75,630.17 96.48,51.96 193.2,99.2 290.12,142.18 -948.93,416.79 -1715.56,1169.18 -2163.43,2281.24 -424.93,-1040.33 -1153.17,-1831.26 -2164.35,-2282.48 1031.29,-460.2 1748.73,-1265.03 2164.35,-2282.3 89.04,219.75 170.25,372.41 173.37,378.74 116.69,228.72 396.96,319.51 625.76,202.83 228.8,-116.75 319.59,-396.89 202.84,-625.76 -1.36,-6.21 -564.44,-1033.89 -497.91,-2401.66 38.01,-256.4 -141.68,-511.23 -415.69,-561.64 -249.39,-49.12 -525.67,109.06 -589.91,389.21 -33.23,145.16 207.35,2656.82 -1615.36,3822.13 -1186.58,756.95 -2533.74,521.71 -2784.72,578.64 -530.58,120.79 -530.15,878.98 0,999.71 247.89,55.88 1621.45,-178.76 2808.41,593.9 1762.7,1148.45 1568.18,3593.39 1579.95,3702.92 0,573.48 819.53,702.58 1000.4,143.04 61.18,-190.55 -196.18,-2615.38 1544.23,-3807.13 1146.67,-785.73 2567.72,-596.24 2814.98,-624.08 565.87,-63.57 616.47,-888.75 42.54,-1010.17z" data-original="#000000"/>
     </g>
    </g>
    <g>
     <g>
      <path class="fil1" d="M40735.63 21832.26c-850.27,-94.44 -6911.37,756.96 -9560.32,-4804.67 -1392.52,-2925.4 -1035.36,-5577.44 -1111.27,-5910.18 -68.33,-299.12 -351.13,-478.3 -621.54,-443.76 -308.36,34.92 -512.9,290.24 -512.9,547.32l0 1206.89c-210.14,4148.91 -2098.19,7680.75 -6062.95,8923.89 -2289.54,718.22 -4277.19,408 -4648.31,489.16 -595.13,135.05 -599.58,989.79 6.33,1124.42 518.85,109.51 4422.61,-522.96 7454.11,1994.66 197.68,164.07 490.9,136.83 655.04,-60.65 164.07,-197.68 136.98,-490.83 -60.65,-655.04 -1040.21,-863.86 -2286.93,-1481.2 -3713.57,-1839.82 3755.85,-946.01 6061.17,-3627.01 6943.54,-7382.45 875.03,3732.43 3161.29,6437.17 6957.52,7378.46 -3758.34,940.43 -6095.5,3619.21 -6962.91,7364.33 -322.93,-1372.66 -861.64,-2686.52 -1671.42,-3833.87 -148.13,-209.88 -438.3,-259.92 -648.22,-111.86 -209.95,148.14 -259.92,438.31 -111.85,648.22 285.46,404.4 542.36,845.08 763.84,1309.81 1313.85,2760.24 1081.7,5568.47 1100.73,5839.36 49.06,692 1178.04,726.82 1142.7,-128.78 -63.81,-1542.19 55.81,-6766.59 4275.65,-9245.7 2847.48,-1671.18 6015.09,-1183.01 6437.91,-1278.13 637.32,-144.68 568.37,-1062.05 -51.44,-1131.61z" data-original="#000000"/>
     </g>
    </g>
    <g>
     <g>
      <path class="fil1" d="M19675.03 14181.66c-314.92,-65.29 -2797.76,374.26 -3906.89,-1863.4 -521.41,-1049.75 -485.2,-2216.94 -478.05,-2363.26 37.33,-253.29 -138.52,-510.79 -416.11,-561.46 -247.83,-49.06 -525.44,108.2 -589.61,390.01 -33.11,144.47 207.28,2656.13 -1615.24,3821.45 -1145,730.43 -2481.33,541.75 -2733.19,569.82 -565.93,64.35 -611.68,880.91 -51.58,1008.46 270.46,60.88 1614.94,-183.05 2808.41,593.89 1271.99,828.65 1536.32,2350.49 1580.02,3191.98 6.03,480.91 -15.26,536.86 22.5,654.03 69.51,215.09 266.01,359.52 488.86,359.52 255.83,0.12 463.12,-189.05 504.16,-420.9 28.4,-158.98 -95.73,-1368.33 493.31,-2538.82 115.47,-229.47 23.06,-509.05 -206.35,-624.56 -229.48,-115.58 -509.05,-23.06 -624.57,206.35 -58.77,116.87 -113.4,238.1 -163.81,363.1 -424.67,-1041.01 -1152.98,-1832.58 -2165.05,-2284.34 1031.22,-460.38 1748.61,-1265.02 2164.23,-2282.34 415.36,1024.77 1127.02,1825.94 2162.61,2283.96 -101.49,44.83 -203,94.25 -303.77,148.7 -226.01,122.21 -310.02,404.39 -187.76,630.4 122.22,225.94 404.32,309.98 630.4,187.81 1097.75,-593.89 2297.07,-432.36 2544.89,-459.97 568.89,-65.21 612.06,-889.94 42.58,-1010.42z" data-original="#000000"/>
     </g>
    </g>
    <g>
    </g>
    <g>
    </g>
    <g>
    </g>
    <g>
    </g>
    <g>
    </g>
    <g>
    </g>
    <g>
    </g>
    <g>
    </g>
    <g>
    </g>
    <g>
    </g>
    <g>
    </g>
    <g>
    </g>
    <g>
    </g>
    <g>
    </g>
    <g>
    </g>
   </g>
  </g>
 </g>
</svg>
